:SAMPLES-PER-SECOND 30
:FULLY-SPECIFIED
:DEGREES
256
root  34.79946467 36.55534279 -14.35781914 8.643918037 -2.930536509 3.530447483
lowerback  -7.8761096 -0.2331369072 -1.593419909
upperback  -3.858129978 0.3589940071 -4.377820015
thorax  0.4487800002 0.3788520098 -3.599380016
lowerneck  -7.508110046 -14.14770031 -10.04259968
upperneck  12.67420006 -19.59370232 12.5965004
head  7.368919849 -8.92566967 3.632950068
lclavicle  0 -4.497500157e-015 -2.743230041e-014
lhumerus  -47.74520111 31.11800003 62.00130081
lradius  -0.1125629246 -6.507048965e-006 29.7310009
lwrist  3.192251654e-007 -3.790274832e-007 -28.87439919
lhand  -0 -36.95510101 -10.36509991
lfingers  90 7.125020027 -90
lthumb  94.77577038 -25.20481961 101.0996093
rclavicle  0 -4.497500157e-015 -2.743230041e-014
rhumerus  -33.62580109 -29.26190186 -29.39949799
rradius  -5.16745672e-007 2.214343908e-008 91.49099731
rwrist  0.0003490542294 -0.002273720223 177.6040039
rhand  -1.768241542e-031 3.154350042 -5.80095005
rfingers  -90 -7.125020027 -90
rthumb  -84.50091829 -9.965484567 -60.9121963
rfemur  -10.14762211 15.30609131 13.20516109
rtibia  -0.4550051391 -0.6110832691 18.49697113
rfoot  1.264304042 -20.74716949 -36.43852615
rtoes  3.773962694 19.65503736 -101.0955726
lfemur  -3.945689201 -17.26637077 -22.07042885
ltibia  5.840457916 -0.4586110413 9.084732056
lfoot  0.3816618621 -21.9558239 36.17409897
ltoes  -8.668102293 -18.09370584 -116.1452316
257
root  34.79861462 36.55545092 -14.36092797 8.63563633 -2.909973621 3.506490707
lowerback  -7.838929653 -0.2553369403 -1.618589997
upperback  -3.863790035 0.3277260065 -4.357460022
thorax  0.4206570089 0.3630540073 -3.566509962
lowerneck  -7.500370026 -14.11800003 -10.2166996
upperneck  12.65810013 -19.54980087 12.70940018
head  7.387420177 -8.90596962 3.698219776
lclavicle  0 -4.497500157e-015 -2.743230041e-014
lhumerus  -47.78950119 31.11829948 62.00239944
lradius  -0.1115221232 -6.507048965e-006 29.75040054
lwrist  3.192251654e-007 -3.790274832e-007 -28.80579948
lhand  -4.4203722e-031 -36.98149872 -10.36349964
lfingers  90 7.125020027 -90
lthumb  94.78764474 -25.20230088 101.1276582
rclavicle  0 -4.497500157e-015 -2.743230041e-014
rhumerus  -34.80250168 -29.00700188 -29.7050972
rradius  -5.16745672e-007 2.214343908e-008 92.24530029
rwrist  0.0003490542294 -0.002273720223 177.5130005
rhand  -1.768210677e-031 3.136149883 -5.818649769
rfingers  -90 -7.125020027 -90
rthumb  -84.51415483 -9.949050752 -60.93144592
rfemur  -10.13735962 15.31015205 13.22721386
rtibia  -0.4458914697 -0.5920738578 18.48206902
rfoot  1.265061975 -20.72253609 -36.46471405
rtoes  3.792956318 19.65152032 -101.1520462
lfemur  -4.095127583 -17.24023247 -21.96653175
ltibia  5.708495617 -0.4261803627 9.314437866
lfoot  0.3872327209 -22.115839 36.13540268
ltoes  -8.645420154 -18.10427197 -116.0722188
258
root  34.79758435 36.55466095 -14.36329489 8.609721184 -2.884392738 3.490752935
lowerback  -7.813680172 -0.2771210372 -1.614850402
upperback  -3.876970053 0.2962839901 -4.342669964
thorax  0.3914349973 0.3471800089 -3.555840015
lowerneck  -7.510250092 -14.09490013 -10.12069988
upperneck  12.60569954 -19.50499916 12.57629967
head  7.342269897 -8.894880295 3.650880098
lclavicle  0 -4.497500157e-015 -2.743230041e-014
lhumerus  -47.82460022 31.12989998 62.00370026
lradius  -0.1103227064 -6.507048965e-006 29.75720024
lwrist  3.192251654e-007 -3.790274832e-007 -28.74480057
lhand  -0 -37.03469849 -10.45030022
lfingers  90 7.125020027 -90
lthumb  94.83085653 -25.28561151 101.1923245
rclavicle  0 -4.497500157e-015 -2.743230041e-014
rhumerus  -35.95640182 -28.74930191 -30.03229904
rradius  -5.16745672e-007 2.214343908e-008 92.93080139
rwrist  0.0003490542294 -0.002273720223 177.2299957
rhand  -1.768362706e-031 3.22480011 -5.970089912
rfingers  -90 -7.125020027 -90
rthumb  -84.56717232 -9.821213906 -60.85758115
rfemur  -10.09322071 15.28761387 13.24672794
rtibia  -0.4329476357 -0.5885164142 18.45049286
rfoot  1.276006699 -20.72639656 -36.46976089
rtoes  3.798479056 19.65049422 -101.1684687
lfemur  -4.167535305 -17.11028671 -21.90258408
ltibia  5.632496834 -0.3804772198 9.443892479
lfoot  0.3870634735 -22.27680588 36.01254654
ltoes  -8.65605228 -18.09932348 -116.106438
259
root  34.79760838 36.55444168 -14.36740845 8.598656654 -2.884566069 3.476908684
lowerback  -7.781889439 -0.2923029363 -1.610929847
upperback  -3.887089968 0.2722890079 -4.322559834
thorax  0.3621380031 0.3346019983 -3.539050102
lowerneck  -7.528019905 -14.07120037 -10.20800018
upperneck  12.61590004 -19.46600151 12.59220028
head  7.354579926 -8.879300117 3.671629906
lclavicle  0 -4.497500157e-015 -2.743230041e-014
lhumerus  -47.86149216 31.10591125 62.04096603
lradius  -0.1090326458 -6.507048965e-006 29.77669907
lwrist  3.192251654e-007 -3.790274832e-007 -28.65029716
lhand  -4.422273508e-031 -37.0141983 -10.29049969
lfingers  90 7.125020027 -90
lthumb  94.78717414 -25.12951046 101.1559589
rclavicle  0 -4.497500157e-015 -2.743230041e-014
rhumerus  -37.27339935 -28.61030197 -30.39519882
rradius  -5.16745672e-007 2.214343908e-008 93.64849854
rwrist  0.0003490542294 -0.002273720223 177.0010071
rhand  -1.768379041e-031 3.234179974 -6.052840233
rfingers  -90 -7.125020027 -90
rthumb  -84.60575523 -9.749444963 -60.85531019
rfemur  -10.08814144 15.29307747 13.25794601
rtibia  -0.4304493666 -0.5909805894 18.44916344
rfoot  1.262296796 -20.74944305 -36.49790573
rtoes  3.821813222 19.64614169 -101.2378649
lfemur  -4.229027748 -17.10534859 -21.85381699
ltibia  5.568386078 -0.3709774613 9.550917625
lfoot  0.3854780495 -22.339077 36.01593399
ltoes  -8.651916086 -18.10124949 -116.0931247
260
root  34.79707973 36.55342643 -14.37090025 8.572694778 -2.871260405 3.459210157
lowerback  -7.74492979 -0.3124409616 -1.62228024
upperback  -3.911540031 0.2431879938 -4.297699928
thorax  0.3149130046 0.3202039897 -3.509170055
lowerneck  -7.521749973 -14.03719997 -10.13659954
upperneck  12.56270027 -19.40620041 12.47570038
head  7.309160233 -8.861470222 3.63609004
lclavicle  0 -4.497500157e-015 -2.743230041e-014
lhumerus  -47.94612122 31.1054821 62.03800964
lradius  -0.1077157408 -6.507048965e-006 29.8159008
lwrist  3.192251654e-007 -3.790274832e-007 -28.61980057
lhand  -4.421005776e-031 -36.99240112 -10.06099987
lfingers  90 7.125020027 -90
lthumb  94.72826373 -24.90519695 101.1119914
rclavicle  0 -4.497500157e-015 -2.743230041e-014
rhumerus  -38.33140182 -28.36770058 -30.69210243
rradius  -5.16745672e-007 2.214343908e-008 94.1135025
rwrist  0.0003490542294 -0.002273720223 176.6750031
rhand  -0 3.238320112 -5.864729881
rfingers  -90 -7.125020027 -90
rthumb  -84.51176732 -9.913856989 -60.83533816
rfemur  -10.05386829 15.31593037 13.27840233
rtibia  -0.4204646647 -0.5711236 18.43024826
rfoot  1.258230567 -20.72634506 -36.54695129
rtoes  3.798942185 19.65040811 -101.169846
lfemur  -4.174175262 -17.03577805 -21.85129738
ltibia  5.582102776 -0.3211917579 9.507709503
lfoot  0.3853841424 -22.44323349 35.99061966
ltoes  -8.65165721 -18.10136999 -116.0922915
